<svg width="16" height="20" viewBox="0 0 16 20" fill="none" xmlns="http://www.w3.org/2000/svg">
<path d="M2 10C2 14.43 5.478 18 9.742 18C10.4 18 11.044 17.915 11.664 17.752C8.668 15.552 6.768 11.966 6.768 8C6.768 5.91 7.295 3.905 8.257 2.147C4.699 2.863 2 6.097 2 10ZM8.768 8C8.768 12.632 11.836 16.528 16 17.665C14.2628 19.1708 12.041 19.9999 9.742 20C4.362 20 0 15.523 0 10C0 4.477 4.362 0 9.742 0C10.61 0 11.452 0.117 12.253 0.335C11.1542 1.28612 10.2739 2.46347 9.67238 3.78644C9.07088 5.1094 8.76237 6.54673 8.768 8Z" fill="#011928"/>
</svg>
